<?xml version="1.0" standalone="no"?>
<!DOCTYPE svg PUBLIC "-//W3C//DTD SVG 20010904//EN"
 "http://www.w3.org/TR/2001/REC-SVG-20010904/DTD/svg10.dtd">
<svg version="1.0" xmlns="http://www.w3.org/2000/svg"
 width="160.000000pt" height="160.000000pt" viewBox="0 0 160.000000 160.000000"
 preserveAspectRatio="xMidYMid meet">

<g transform="translate(0.000000,160.000000) scale(0.100000,-0.100000)"
fill="#000000" stroke="none">
<path d="M660 1525 c-160 -33 -267 -92 -390 -215 -152 -151 -217 -291 -227
-482 -10 -179 44 -350 153 -484 18 -23 30 -45 26 -49 -4 -5 -2 -5 4 -2 11 6
67 -44 65 -60 -1 -4 2 -8 7 -8 14 -1 122 -78 122 -88 0 -6 3 -8 6 -5 3 4 33
-7 68 -22 222 -101 504 -86 701 38 22 14 45 25 52 25 7 0 10 4 8 8 -6 8 25 23
40 20 6 -2 7 0 4 3 -8 9 104 122 116 117 6 -2 7 -1 3 3 -3 4 11 32 32 63 55
78 97 187 116 298 14 81 15 110 5 187 -22 168 -105 332 -229 450 -33 32 -57
60 -53 63 3 4 1 5 -4 3 -6 -1 -38 14 -72 35 -170 104 -367 140 -553 102z m257
-31 c-3 -3 -12 -4 -19 -1 -8 3 -5 6 6 6 11 1 17 -2 13 -5z m52 -11 c-10 -2
-19 -13 -22 -25 -6 -22 -31 -20 -33 3 -1 9 1 10 3 2 7 -20 23 -15 23 7 0 14 6
20 23 19 15 -1 17 -3 6 -6z m-169 -32 c0 -14 -6 -19 -24 -17 -19 2 -24 -1 -23
-16 1 -16 7 -19 31 -14 22 5 27 3 19 -5 -6 -6 -21 -9 -34 -7 -20 2 -25 10 -27
41 -3 35 -2 37 27 37 24 0 31 -4 31 -19z m167 -3 c-3 -8 -6 -5 -6 6 -1 11 2
17 5 13 3 -3 4 -12 1 -19z m-356 -34 c11 -26 17 -49 14 -52 -3 -3 -5 0 -5 7 0
7 -4 9 -10 6 -6 -4 -7 1 -3 11 5 12 3 15 -6 9 -10 -5 -11 -2 -7 13 4 13 1 22
-9 26 -17 6 -21 26 -5 26 6 0 20 -21 31 -46z m66 32 c-15 -7 -25 -15 -22 -18
4 -3 2 -9 -4 -13 -7 -3 -11 2 -11 14 0 12 8 21 23 24 39 8 43 6 14 -7z m225
-11 c3 -13 1 -22 -3 -19 -9 5 -13 44 -5 44 2 0 6 -11 8 -25z m117 -35 c1 -13
0 -13 -9 0 -5 8 -9 24 -9 35 l0 20 9 -20 c5 -11 9 -27 9 -35z m-313 3 c-10
-10 -19 5 -10 18 6 11 8 11 12 0 2 -7 1 -15 -2 -18z m254 -4 c0 -10 -7 -19
-15 -19 -8 0 -15 5 -15 11 0 5 5 7 11 3 8 -4 9 1 4 16 -5 15 -4 20 4 16 6 -4
11 -16 11 -27z m-460 17 c0 -3 -4 -8 -10 -11 -5 -3 -10 -1 -10 4 0 6 5 11 10
11 6 0 10 -2 10 -4z m75 -19 c0 -13 -6 -24 -13 -24 -8 0 -10 8 -6 20 4 14 3
17 -6 12 -9 -5 -11 -4 -6 3 12 20 31 13 31 -11z m529 10 c17 -13 17 -16 3 -43
-15 -28 -21 -22 -18 17 1 9 -5 19 -13 22 -9 4 -13 1 -10 -6 2 -7 -2 -21 -10
-32 -15 -20 -15 -20 -16 3 0 14 4 21 11 16 8 -4 9 0 4 15 -5 16 -2 21 12 21
11 0 27 -6 37 -13z m-441 -12 c-3 -9 -8 -14 -10 -11 -3 3 -2 9 2 15 9 16 15
13 8 -4z m247 -1 c0 -2 -7 -4 -15 -4 -8 0 -15 4 -15 10 0 5 7 7 15 4 8 -4 15
-8 15 -10z m273 10 c3 -3 3 -13 0 -21 -5 -12 -7 -12 -14 -1 -15 23 -4 40 14
22z m-173 -36 c0 -4 -6 -5 -14 -2 -8 3 -12 12 -9 21 5 12 7 12 14 1 5 -7 9
-16 9 -20z m-479 -5 c7 -16 15 -31 17 -34 1 -4 -4 -9 -11 -12 -11 -4 -13 0
-10 16 3 15 2 18 -4 9 -7 -9 -12 -6 -21 13 -15 33 -15 35 1 35 8 0 20 -12 28
-27z m179 -8 c-14 -16 -50 -21 -50 -6 0 6 9 8 20 6 12 -2 23 2 27 11 3 8 8 13
11 10 3 -3 -1 -12 -8 -21z m-228 -42 c10 -13 3 -33 -13 -33 -5 0 -9 5 -9 11 0
5 5 7 11 3 7 -4 10 -1 7 7 -3 8 -10 14 -16 14 -6 0 -17 6 -24 13 -11 11 -9 16
7 28 18 14 20 13 23 -8 2 -13 8 -28 14 -35z m115 36 c-11 -7 -23 -7 -28 -2 -5
5 3 9 19 11 24 1 25 0 9 -9z m559 -1 c5 -7 3 -8 -6 -3 -10 6 -12 4 -7 -9 5
-11 3 -15 -5 -10 -8 5 -9 1 -4 -12 5 -14 4 -16 -4 -8 -9 9 -9 17 -1 33 13 24
17 25 27 9z m44 -2 c0 -26 -12 -46 -23 -39 -6 4 -8 0 -4 -10 3 -10 2 -17 -3
-17 -13 0 -13 7 2 47 12 34 28 44 28 19z m-799 -13 c13 -16 12 -17 -3 -4 -12
9 -18 10 -18 2 0 -6 -7 -11 -16 -11 -9 0 -12 -5 -8 -12 4 -7 3 -8 -4 -4 -19
12 -14 -9 10 -40 12 -16 23 -31 25 -33 7 -10 31 23 26 37 -4 15 -3 15 6 2 9
-13 11 -13 11 2 0 9 -5 19 -10 21 -6 3 -5 4 2 3 25 -5 20 -38 -8 -61 l-28 -22
-24 36 c-13 20 -28 38 -33 39 -17 7 -9 20 24 41 17 11 33 21 33 21 1 0 8 -8
15 -17z m644 -3 c-3 -5 3 -10 15 -10 13 0 19 4 14 12 -4 7 -3 8 4 4 21 -13 12
-27 -15 -24 -26 3 -46 28 -23 28 6 0 8 -4 5 -10z m-103 -11 c130 -27 269 -122
346 -239 64 -94 86 -175 86 -302 0 -121 -15 -160 -34 -89 -9 34 -16 43 -40 48
-49 9 -58 29 -32 74 12 21 22 44 22 52 0 20 -37 60 -44 48 -4 -6 -13 -8 -21
-4 -8 3 -15 0 -15 -7 0 -6 -5 -8 -11 -4 -8 5 -6 10 5 16 9 5 16 16 16 25 0 10
6 13 16 9 8 -3 12 -2 9 4 -3 6 -13 10 -22 10 -21 0 -75 47 -63 55 20 13 10 46
-20 63 -17 9 -28 23 -25 30 6 16 -65 81 -89 82 -11 0 -27 -6 -35 -14 -9 -7
-34 -16 -57 -19 -33 -4 -43 -1 -52 14 -16 25 -54 24 -77 -1 -10 -11 -26 -20
-35 -20 -27 0 -31 -12 -15 -37 15 -22 14 -23 -11 -23 -37 0 -118 -52 -184
-119 -37 -38 -69 -60 -97 -68 -56 -17 -63 -16 -79 5 -9 12 -26 17 -63 16 -60
-1 -60 -1 -9 106 62 129 208 245 358 284 66 18 199 20 272 5z m388 -39 c22
-22 25 -36 10 -45 -6 -4 -7 1 -3 11 4 11 3 15 -4 11 -6 -4 -14 -1 -16 5 -4 10
-8 9 -16 -2 -8 -12 -13 -12 -22 -3 -9 9 -9 16 1 28 17 20 26 19 50 -5z m-66
-62 c-4 -14 -2 -18 5 -14 6 4 11 2 11 -5 0 -8 4 -8 15 1 12 10 13 15 4 20 -7
5 -8 10 -1 14 17 10 22 -23 6 -39 -11 -11 -20 -12 -34 -5 -20 11 -33 37 -24
51 10 17 25 -2 18 -23z m-964 -29 c12 -8 10 -9 -7 -4 -34 9 -49 -26 -22 -51
20 -18 21 -18 35 0 7 10 11 23 8 27 -3 5 0 9 5 9 15 0 13 -21 -4 -44 -13 -17
-18 -18 -39 -6 -33 17 -38 33 -20 59 17 24 23 25 44 10z m1076 -25 c-3 -7 -1
-15 5 -18 5 -2 4 -3 -3 -2 -7 2 -12 11 -10 20 3 16 2 16 -22 0 -14 -9 -26 -20
-26 -25 0 -14 18 -20 23 -7 3 8 6 6 6 -4 1 -21 -12 -23 -27 -5 -14 16 -10 43
8 60 10 10 11 9 5 -2 -5 -9 -3 -12 6 -9 8 3 13 11 11 18 -3 11 0 11 13 0 9 -7
14 -19 11 -26z m-507 -8 c19 -20 29 -23 67 -18 42 4 133 -23 119 -36 -2 -2 0
-13 6 -23 8 -16 6 -19 -11 -19 -25 0 -72 23 -89 44 -20 24 -1 19 26 -5 19 -18
25 -20 38 -9 14 12 12 15 -16 28 -27 14 -36 14 -72 1 -53 -18 -66 -39 -47 -75
19 -35 14 -64 -14 -89 -13 -11 -31 -35 -41 -53 -9 -19 -19 -32 -22 -29 -2 3 0
14 6 25 8 15 6 23 -9 37 -11 10 -20 26 -20 35 0 18 44 82 52 75 3 -3 11 3 19
12 13 17 13 17 -5 3 -18 -14 -19 -13 -12 5 7 18 5 18 -14 -2 -26 -28 -27 -28
-41 -1 -10 18 -9 20 6 14 21 -8 65 18 65 39 0 20 -20 19 -35 -2 -11 -15 -17
-15 -41 -5 l-27 13 30 19 c17 10 34 23 37 29 10 16 20 14 45 -13z m210 -20
c14 -14 19 -26 13 -26 -7 0 -20 9 -29 20 -10 11 -28 20 -40 20 -24 0 -31 15
-10 23 16 6 37 -6 66 -37z m365 -12 c4 -10 1 -14 -6 -12 -15 5 -23 28 -10 28
5 0 13 -7 16 -16z m-36 -10 c-4 -3 3 -15 14 -26 l21 -21 -28 -23 c-29 -23 -45
-23 -45 -1 0 7 4 6 10 -3 9 -14 11 -13 14 9 0 5 5 13 10 18 5 5 6 3 2 -4 -4
-7 -3 -13 3 -13 18 0 21 18 5 34 -16 17 -39 22 -30 7 3 -5 -1 -14 -8 -20 -10
-9 -16 -9 -21 -1 -4 6 -4 14 -1 17 3 4 6 1 6 -6 0 -7 5 -9 10 -6 6 4 8 10 5
15 -3 5 3 13 12 19 20 12 29 14 21 5z m-1145 -18 c19 -9 24 -40 5 -33 -7 2
-13 10 -13 17 0 7 -6 15 -14 18 -8 3 -11 0 -7 -7 4 -7 2 -9 -8 -5 -9 3 -17 -2
-21 -15 -3 -12 -11 -21 -16 -21 -6 0 -3 13 7 29 16 28 33 32 67 17z m721 -31
c59 -46 60 -56 2 -15 -25 16 -47 30 -50 30 -3 0 -3 -18 0 -40 3 -25 1 -40 -6
-40 -6 0 -8 5 -5 10 4 6 1 17 -5 25 -6 8 -8 20 -4 26 4 8 3 9 -4 5 -16 -9 -15
7 0 22 17 17 20 16 72 -23z m126 13 c19 -13 35 -29 38 -35 5 -16 -22 -17 -49
-3 -15 8 -19 7 -19 -5 0 -8 -7 -15 -15 -15 -19 0 -19 7 0 26 11 12 12 20 5 35
-14 25 0 24 40 -3z m-370 -20 c0 -7 -5 -40 -10 -73 -8 -52 -7 -69 10 -114 11
-30 17 -57 15 -61 -2 -4 14 -27 36 -51 22 -24 47 -57 55 -72 11 -21 20 -27 32
-22 19 8 93 8 136 -1 16 -4 31 -1 35 5 8 12 81 44 81 35 0 -8 -22 -48 -29 -54
-4 -3 -14 -17 -23 -32 -27 -41 -117 -88 -171 -88 -61 0 -267 68 -267 88 0 12
10 14 51 9 47 -6 54 -4 80 23 29 28 39 60 19 60 -6 0 -15 -11 -20 -25 -11 -30
-52 -42 -87 -26 -42 19 -70 -17 -82 -104 l-10 -70 3 68 c2 68 -1 76 -22 55 -9
-9 -12 -9 -12 -1 0 7 5 15 10 18 6 4 8 11 5 16 -4 5 -1 9 5 9 6 0 9 4 6 8 -8
13 40 36 55 27 8 -6 10 -4 4 4 -4 7 -17 10 -28 7 -12 -3 -27 0 -34 6 -9 7 -13
7 -13 -1 0 -6 5 -11 11 -11 8 0 7 -5 -2 -16 -12 -14 -14 -14 -20 3 -4 10 -8
22 -8 26 -2 14 43 25 61 16 26 -14 13 12 -17 34 -17 12 -26 14 -31 5 -4 -6 -3
-8 4 -4 6 3 13 2 16 -2 3 -5 -6 -14 -20 -21 -31 -14 -45 -14 -21 0 13 8 15 14
7 28 -8 15 -5 20 11 24 12 3 18 10 14 16 -4 7 4 11 19 11 26 0 35 14 16 25 -5
3 -10 11 -10 16 0 6 4 8 8 5 5 -3 9 1 9 9 0 17 -13 20 -22 5 -3 -5 -11 -10
-16 -10 -5 0 -1 10 11 22 19 21 27 48 14 48 -10 0 -44 -44 -58 -76 -8 -17 -30
-41 -49 -53 -41 -25 -83 -98 -74 -130 4 -16 -2 -25 -23 -36 -16 -8 -37 -15
-47 -14 -10 0 -2 5 17 12 29 10 36 18 41 47 9 54 36 98 79 128 38 26 50 42 31
42 -5 0 11 21 34 47 43 47 44 47 64 29 12 -11 24 -16 28 -13 4 4 -2 13 -12 21
-18 13 -17 14 8 11 14 -2 31 3 38 11 9 11 8 14 -4 14 -9 0 -18 4 -22 9 -3 6 4
8 15 6 24 -5 39 20 22 37 -13 13 -76 -28 -66 -43 3 -5 1 -8 -4 -7 -13 4 -101
-79 -94 -88 4 -4 1 -4 -5 0 -7 4 -13 3 -13 -2 0 -6 -6 -9 -12 -8 -7 0 -37 -5
-67 -13 -42 -11 -64 -24 -98 -59 -27 -29 -41 -52 -38 -62 5 -11 3 -12 -6 -3
-9 9 -6 19 10 42 33 46 79 77 145 95 47 14 73 31 131 84 41 37 86 77 102 89
31 25 63 30 63 11z m-491 -7 c7 -5 10 -14 7 -20 -4 -6 -12 -9 -17 -5 -5 3 -6
10 -3 16 5 8 1 9 -10 5 -10 -4 -15 -3 -11 3 8 12 16 12 34 1z m741 -32 c0 -5
-7 -9 -15 -9 -9 0 -15 9 -15 21 0 18 2 19 15 9 8 -7 15 -16 15 -21z m-781 -9
c26 -13 23 -64 -4 -68 -11 -1 -29 4 -40 12 -17 12 -18 17 -7 40 12 28 23 31
51 16z m891 -33 c-25 -23 -34 -26 -41 -16 -13 21 -11 29 6 23 9 -4 15 0 15 9
0 18 18 26 39 19 10 -4 5 -13 -19 -35z m366 17 c7 -28 0 -38 -33 -49 -19 -5
-25 -1 -34 22 -8 23 -7 30 7 40 29 21 53 16 60 -13z m-435 -20 l24 -27 -34 18
c-33 17 -35 17 -48 -1 -17 -24 -17 -76 2 -147 19 -74 19 -74 -6 -87 -32 -18
-64 -4 -100 41 -39 50 -40 88 -4 131 l27 31 -7 -36 c-5 -24 -3 -37 4 -37 18 0
32 37 22 62 -8 24 -5 48 8 48 4 0 6 -13 3 -30 -2 -16 0 -30 6 -30 12 0 22 24
22 54 0 13 3 26 7 29 14 15 51 5 74 -19z m150 -13 c12 -11 18 -24 15 -30 -9
-13 -71 -7 -91 9 -21 17 -8 33 21 26 14 -4 24 -2 24 4 0 15 8 12 31 -9z m-127
-47 c8 -20 -16 -50 -45 -57 -24 -6 -38 18 -20 36 6 6 11 16 11 22 0 5 -5 3
-10 -5 -8 -12 -10 -10 -10 11 0 14 3 28 6 32 10 9 61 -20 68 -39z m-294 10 c0
-8 -4 -12 -10 -9 -5 3 -10 10 -10 16 0 5 5 9 10 9 6 0 10 -7 10 -16z m344 -3
c19 -21 8 -35 -18 -25 -16 6 -23 44 -8 44 5 0 17 -9 26 -19z m-929 -14 c30 5
37 3 33 -8 -3 -8 -13 -15 -24 -16 -18 -3 -18 -2 1 7 16 8 13 9 -15 5 -38 -5
-54 2 -58 25 -2 12 1 11 11 -2 11 -13 23 -16 52 -11z m1315 13 c0 -13 -11 -13
-30 0 -12 8 -11 10 8 10 12 0 22 -4 22 -10z m-30 -17 c0 -3 -7 -3 -15 1 -9 3
-15 0 -15 -8 0 -21 49 -26 61 -7 8 14 9 13 6 -4 -2 -15 -10 -20 -30 -18 -18 1
-25 -2 -21 -10 3 -7 -2 -3 -10 7 -17 21 -20 38 -10 49 6 6 34 -2 34 -10z
m-1091 -6 c11 -14 6 -27 -10 -27 -5 0 -6 7 -3 15 5 12 -2 15 -32 14 -38 -1
-38 -2 -9 -9 l30 -8 -27 -1 c-27 -1 -43 11 -31 23 12 11 70 6 82 -7z m781 3
c0 -5 -2 -10 -4 -10 -3 0 -8 5 -11 10 -3 6 -1 10 4 10 6 0 11 -4 11 -10z m30
0 c0 -5 -4 -10 -10 -10 -5 0 -10 5 -10 10 0 6 5 10 10 10 6 0 10 -4 10 -10z
m-860 -40 c23 0 23 -1 -12 -37 -19 -21 -40 -47 -46 -58 -10 -17 -11 -14 -12
21 0 23 3 56 6 73 6 29 8 30 24 16 9 -8 27 -15 40 -15z m946 15 c16 -40 -48
-59 -91 -27 l-23 17 41 12 c58 15 67 15 73 -2z m-153 -2 c-39 -5 -44 -23 -7
-23 31 0 97 -38 88 -51 -3 -5 -14 -9 -24 -9 -10 0 -23 -6 -27 -14 -4 -7 -26
-16 -48 -19 -22 -3 -50 -9 -61 -12 -19 -6 -22 -2 -26 30 -3 30 1 42 26 70 26
28 38 34 71 33 36 -1 37 -2 8 -5z m-993 -20 c0 -15 -2 -16 -10 -3 -8 12 -10
12 -10 1 0 -8 -3 -12 -6 -8 -8 7 4 27 17 27 5 0 9 -8 9 -17z m68 -25 c2 -15
-1 -35 -7 -45 -8 -14 -9 -8 -4 21 5 31 3 37 -7 31 -8 -5 -11 -4 -6 3 3 6 -2
13 -11 16 -11 3 -8 4 7 3 19 -2 26 -8 28 -29z m418 0 c4 -7 4 -10 -1 -6 -11
11 -47 -11 -39 -24 4 -6 3 -8 -3 -5 -16 10 -72 -31 -79 -59 -9 -37 2 -177 16
-205 7 -13 21 -34 32 -46 11 -12 17 -26 14 -31 -11 -17 18 -29 86 -36 l68 -7
-4 33 c-4 40 -28 58 -56 40 -27 -16 -35 -15 -16 3 16 17 66 21 66 5 0 -5 6
-10 14 -10 7 0 20 -7 27 -16 12 -15 11 -16 -8 -10 -21 7 -22 5 -16 -24 l6 -31
-74 7 c-77 7 -131 30 -107 45 9 6 5 14 -14 32 -30 28 -47 97 -49 193 -2 74 3
83 66 127 57 40 61 42 71 25z m921 0 c-2 -8 -19 -12 -41 -11 -22 2 -34 -1 -31
-7 3 -6 1 -10 -4 -10 -6 0 -11 7 -11 16 0 14 7 16 40 11 23 -3 38 -1 34 4 -3
5 0 9 6 9 7 0 10 -6 7 -12z m-1433 -9 c-3 -6 0 -16 7 -21 12 -8 11 -9 -1 -5
-18 4 -27 37 -10 37 6 0 8 -5 4 -11z m56 -3 c0 -2 -8 -10 -17 -17 -16 -13 -17
-12 -4 4 13 16 21 21 21 13z m644 -17 c-3 -5 -10 -7 -15 -3 -5 3 -7 10 -3 15
3 5 10 7 15 3 5 -3 7 -10 3 -15z m466 -69 c25 -25 26 -49 3 -56 -10 -3 -41
-16 -68 -29 -60 -30 -80 -32 -70 -7 4 9 13 31 19 48 6 18 18 39 25 48 19 22
67 20 91 -4z m-970 -14 c0 -2 -7 -7 -16 -10 -8 -3 -12 -2 -9 4 6 10 25 14 25
6z m598 -18 c-6 -18 -28 -21 -28 -4 0 9 7 16 16 16 9 0 14 -5 12 -12z m142 -9
c0 -18 -2 -19 -15 -9 -15 12 -12 30 6 30 5 0 9 -10 9 -21z m-796 -7 c-12 -9
-24 -24 -27 -32 -4 -12 -6 -12 -6 2 -1 9 9 24 21 32 30 21 38 20 12 -2z m286
8 c0 -5 -5 -10 -11 -10 -5 0 -7 5 -4 10 3 6 8 10 11 10 2 0 4 -4 4 -10z m805
-17 c-32 -12 -39 -21 -26 -37 7 -9 11 -23 7 -31 -3 -9 0 -15 9 -15 8 0 15 13
18 33 l4 32 1 -32 c2 -29 -3 -35 -35 -49 -21 -9 -49 -16 -63 -16 -14 0 -19 -2
-12 -5 16 -6 -219 -173 -244 -173 -4 0 19 18 52 41 32 23 69 50 82 62 12 11
22 17 22 13 0 -4 5 -4 11 -1 6 5 -3 20 -25 40 l-36 33 25 16 c13 9 28 16 32
16 5 0 31 12 58 26 41 22 46 23 30 7 -11 -11 -23 -19 -27 -16 -14 8 -8 -10 9
-29 20 -22 41 -23 65 -1 22 20 23 36 3 53 -14 11 -12 15 12 30 15 10 30 15 33
12 3 -2 1 -6 -5 -9z m-1002 -60 c-7 -2 -19 -2 -25 0 -7 3 -2 5 12 5 14 0 19
-2 13 -5z m127 -35 c37 -140 39 -144 82 -168 29 -16 62 -25 108 -27 60 -3 67
-2 86 23 16 19 34 28 68 31 38 5 52 12 74 39 19 24 35 34 55 34 38 0 86 23
136 67 23 19 45 32 48 29 4 -4 -3 -14 -16 -22 -17 -13 -20 -19 -10 -30 8 -10
8 -14 0 -14 -6 0 -16 -11 -23 -25 -8 -19 -8 -28 3 -42 7 -10 9 -15 5 -11 -5 4
-15 0 -23 -10 -13 -15 -13 -15 -4 5 7 13 7 24 2 27 -13 9 -8 31 12 51 26 25
11 32 -16 8 -12 -12 -56 -38 -97 -58 l-74 -37 27 -14 c31 -16 34 -31 12 -60
-22 -30 -18 -37 19 -31 49 8 111 39 183 91 34 25 65 41 68 36 3 -5 1 -11 -5
-15 -18 -11 -11 -34 15 -48 l26 -13 -23 -21 c-13 -12 -50 -38 -83 -58 -217
-130 -512 -96 -685 80 -30 30 -49 55 -42 55 7 0 12 10 12 22 0 25 -27 58 -47
58 -15 0 -53 35 -53 50 0 6 10 10 23 11 12 0 38 6 57 13 60 23 68 20 80 -26z
m815 20 c6 -4 2 -8 -7 -8 -10 0 -18 7 -18 17 0 9 3 12 8 7 4 -5 12 -12 17 -16z
m-563 -37 c85 -33 106 -40 131 -45 15 -4 27 -12 27 -18 0 -9 -3 -9 -12 0 -19
19 -29 14 -22 -13 5 -19 2 -25 -10 -25 -9 0 -16 6 -16 13 0 26 -75 77 -75 52
0 -6 5 -9 12 -7 14 3 48 -57 37 -66 -4 -4 -9 -1 -11 6 -3 7 -11 18 -19 25 -8
7 -21 18 -29 25 -7 6 -29 13 -47 15 -26 2 -34 7 -36 25 -3 18 1 22 22 22 14 0
35 -4 48 -9z m-499 -81 l22 -25 -27 24 c-20 18 -28 33 -27 55 l2 31 4 -30 c3
-16 14 -41 26 -55z m1117 55 c0 -14 -4 -25 -10 -25 -5 0 -10 5 -10 10 0 6 -5
10 -10 10 -16 0 8 -41 37 -63 12 -10 23 -26 23 -35 -1 -15 -2 -15 -11 1 -11
19 -39 23 -39 5 0 -6 -3 -8 -7 -4 -5 4 1 14 11 22 20 14 13 19 -24 15 -12 -2
-13 0 -1 7 9 7 -1 10 -30 9 -24 0 -35 -2 -25 -5 22 -5 55 -41 56 -59 0 -7 6
-13 14 -13 8 0 17 6 19 13 4 7 6 6 6 -4 1 -9 -8 -19 -18 -22 -23 -6 -31 0 -31
24 0 29 -19 32 -40 7 -17 -21 -20 -22 -36 -6 -17 17 -11 43 8 32 6 -4 6 0 -1
13 -14 27 -6 33 41 33 21 0 38 5 38 10 0 6 -10 10 -22 10 -19 0 -17 3 12 19
47 25 50 25 50 -4z m-211 -27 c-1 -18 -2 -19 -6 -5 -2 9 -9 15 -14 11 -5 -3
-6 -10 -3 -16 4 -7 2 -8 -5 -4 -9 6 -9 11 0 22 17 21 29 17 28 -8z m-758 1
c11 -5 17 -14 14 -20 -4 -5 -1 -9 6 -9 7 0 9 -3 5 -7 -4 -4 -18 5 -32 20 -26
29 -25 33 7 16z m654 -14 c-11 -8 -25 -19 -31 -24 -7 -5 -15 -7 -18 -3 -4 3 8
14 26 24 40 21 50 22 23 3z m5 -48 c-10 -9 -11 -9 -5 2 6 11 4 13 -11 8 -18
-7 -18 -6 1 8 23 18 36 1 15 -18z m-670 13 c0 -5 -5 -10 -11 -10 -5 0 -7 5 -4
10 3 6 8 10 11 10 2 0 4 -4 4 -10z m327 4 c-3 -3 -12 -4 -19 -1 -8 3 -5 6 6 6
11 1 17 -2 13 -5z m263 -9 c-10 -12 -10 -15 0 -15 8 0 11 -2 8 -5 -3 -3 -13
-2 -23 1 -17 7 -17 8 1 21 24 17 29 17 14 -2z m40 -82 c0 -3 -9 -3 -20 0 -11
3 -20 0 -20 -6 0 -6 -3 -8 -6 -4 -12 11 6 25 26 20 11 -3 20 -8 20 -10z m260
-54 c0 -6 -4 -8 -9 -5 -16 10 -41 -6 -41 -26 0 -14 5 -18 15 -15 8 4 17 1 21
-4 4 -7 -3 -9 -17 -7 -33 4 -37 37 -8 59 23 17 39 17 39 -2z m-759 -20 c31
-22 37 -43 17 -55 -7 -4 -10 -4 -6 1 12 13 -11 44 -32 42 -26 -2 -25 -12 2
-31 12 -9 17 -16 11 -16 -6 0 -19 7 -27 16 -12 12 -16 12 -17 2 -1 -7 -2 -20
-3 -28 -1 -18 13 -30 38 -30 13 0 16 5 11 18 -5 13 -3 14 6 5 14 -14 4 -33
-18 -33 -19 0 -73 32 -73 43 0 5 8 3 17 -4 15 -12 16 -12 11 2 -4 9 2 30 12
47 10 16 16 33 13 36 -15 14 11 4 38 -15z m677 -40 c-3 -8 -7 -3 -11 10 -4 17
-3 21 5 13 5 -5 8 -16 6 -23z m106 22 c4 -5 -3 -7 -14 -4 -23 6 -26 13 -6 13
8 0 17 -4 20 -9z m-694 -37 c0 -2 -9 0 -20 6 -11 6 -20 13 -20 16 0 2 9 0 20
-6 11 -6 20 -13 20 -16z m553 16 c-12 -5 -27 -19 -33 -30 -6 -12 -14 -19 -17
-16 -12 12 28 56 50 55 l22 0 -22 -9z m151 -14 c-6 -16 -49 -37 -58 -29 -3 4
-6 11 -6 17 0 6 4 5 9 -2 6 -10 13 -8 32 7 29 24 30 25 23 7z m-732 -41 c-11
-21 -25 -4 -16 20 4 10 10 13 16 7 7 -7 7 -16 0 -27z m111 17 c15 -2 27 -8 27
-12 0 -5 -14 -5 -31 0 -39 11 -45 8 -54 -27 -11 -45 -22 -53 -56 -41 -20 7
-29 16 -28 31 l0 22 16 -22 c8 -13 21 -23 28 -23 14 0 56 77 46 83 -3 2 1 2 9
-1 8 -3 27 -7 43 -10z m527 9 c0 -5 -10 -11 -22 -14 -22 -6 -22 -6 -4 8 23 17
26 18 26 6z m-135 -17 c26 -26 16 -76 -18 -92 -39 -19 -77 5 -77 48 0 49 61
78 95 44z m85 -44 c5 0 18 10 30 22 16 18 20 19 20 5 0 -18 -29 -37 -58 -37
-24 0 -46 25 -37 40 5 8 12 4 22 -9 8 -12 18 -21 23 -21z m-470 15 c0 -8 -4
-15 -10 -15 -5 0 -10 7 -10 15 0 8 5 15 10 15 6 0 10 -7 10 -15z m109 8 c-11
-2 -15 -12 -12 -28 3 -13 0 -31 -6 -42 -9 -15 -10 -11 -11 24 0 23 -5 44 -12
46 -7 3 3 5 22 5 19 0 28 -2 19 -5z m149 -5 c17 -17 15 -64 -4 -82 -9 -9 -31
-16 -52 -15 -20 1 -28 3 -17 6 11 2 30 6 43 9 16 3 22 11 22 33 0 37 -22 54
-60 49 -16 -3 -30 -1 -30 4 0 13 85 9 98 -4z m-58 -49 c0 -16 -4 -29 -10 -29
-5 0 -10 16 -10 36 0 21 4 33 10 29 6 -3 10 -19 10 -36z m-210 -5 c0 -8 2 -14
4 -14 2 0 11 -3 19 -6 11 -4 17 2 20 18 4 20 4 19 6 -6 1 -27 0 -28 -36 -21
-21 3 -42 11 -48 16 -7 7 -4 8 7 4 13 -5 15 -2 11 16 -4 15 -3 20 5 15 7 -4
12 -14 12 -22z m160 -19 c0 -23 -3 -25 -47 -23 l-48 1 43 4 c34 3 42 8 42 24
0 10 2 19 5 19 3 0 5 -11 5 -25z"/>
<path d="M758 1448 c9 -9 15 -9 24 0 9 9 7 12 -12 12 -19 0 -21 -3 -12 -12z"/>
<path d="M506 1367 c3 -10 9 -15 12 -12 3 3 0 11 -7 18 -10 9 -11 8 -5 -6z"/>
<path d="M446 1335 c4 -8 8 -15 10 -15 2 0 4 7 4 15 0 8 -4 15 -10 15 -5 0 -7
-7 -4 -15z"/>
<path d="M1285 1279 c-11 -17 1 -21 15 -4 8 9 8 15 2 15 -6 0 -14 -5 -17 -11z"/>
<path d="M808 1145 c-17 -14 -24 -27 -17 -30 6 -4 19 1 29 10 34 30 68 -2 38
-34 -11 -11 -10 -12 2 -6 37 20 38 25 8 55 -16 17 -30 30 -31 30 -1 0 -14 -11
-29 -25z"/>
<path d="M701 1047 c-9 -12 -8 -16 3 -20 19 -7 32 11 19 24 -6 6 -14 5 -22 -4z"/>
<path d="M597 793 c-10 -9 -9 -23 2 -23 5 0 11 7 15 15 5 15 -5 20 -17 8z"/>
<path d="M635 740 c3 -5 8 -10 11 -10 2 0 4 5 4 10 0 6 -5 10 -11 10 -5 0 -7
-4 -4 -10z"/>
<path d="M610 655 c-7 -9 -11 -17 -9 -20 3 -2 10 5 17 15 14 24 10 26 -8 5z"/>
<path d="M170 1001 c0 -5 -3 -17 -7 -27 -5 -14 -3 -16 11 -11 10 4 15 3 11 -3
-8 -13 5 -13 25 0 13 8 12 11 -5 25 -20 15 -20 15 0 9 16 -5 17 -4 5 5 -18 13
-40 14 -40 2z"/>
<path d="M1425 1000 c4 -6 -1 -7 -11 -3 -14 5 -16 3 -11 -11 4 -10 7 -22 7
-27 0 -5 5 -9 11 -9 5 0 8 4 5 9 -3 5 1 12 10 15 8 3 12 2 9 -4 -3 -6 -1 -10
4 -10 17 0 13 37 -5 44 -22 8 -26 8 -19 -4z"/>
<path d="M1019 903 c-13 -16 -12 -17 4 -4 9 7 17 15 17 17 0 8 -8 3 -21 -13z"/>
<path d="M1146 583 c-10 -10 -15 -12 -11 -5 6 11 3 11 -14 0 -12 -7 -16 -15
-11 -16 6 -2 22 -15 36 -29 l25 -25 24 27 c28 30 30 36 13 53 -17 17 -41 15
-62 -5z m44 -17 c0 -18 -17 -29 -30 -21 -8 5 -7 11 1 21 15 18 29 18 29 0z"/>
<path d="M1165 560 c-3 -5 -1 -10 4 -10 6 0 11 5 11 10 0 6 -2 10 -4 10 -3 0
-8 -4 -11 -10z"/>
<path d="M645 552 c-12 -12 -3 -17 30 -18 18 0 32 3 30 7 -6 9 -53 18 -60 11z"/>
<path d="M1220 451 c0 -5 -8 -11 -17 -13 -12 -2 -14 -6 -7 -10 6 -4 19 1 29
12 10 12 13 20 7 20 -7 0 -12 -4 -12 -9z"/>
<path d="M973 208 c-17 -22 -24 -66 -11 -74 7 -5 8 -3 3 7 -5 8 0 7 11 -3 25
-22 49 -7 57 35 4 23 0 30 -20 38 -30 11 -29 11 -40 -3z"/>
</g>
</svg>
